# xmcd CD database file
# Copyright (C) 1993-1998 Ti Kan
#
# Track frame offsets:
# 150
# 19690
# 36252
# 58635
# 76522
# 90447
# 108430
# 127742
# 144962
# 165937
#
# Disc length: 2491 seconds
# Revision: 0
# Processed by: cddbd v1.4b41PL1 Copyright (c) Steve Scherf et al.
# Submitted via: CDSpectrumPro v3.3.331
#
DISCID=6509b90a
DTITLE=Various Artist - Zebra Head
DYEAR=1900
DGENRE=
TTITLE0=Nasty Nas - Half Time
TTITLE1=AMG - Dog From Around The Way
TTITLE2=The Goats - Do the Digs Dug
TTITLE3=MC Serch - Puff The Head
TTITLE4=Boss - Explanation Of A Mad Bitch
TTITLE5=Kool Moe Dee - Good Time
TTITLE6=Ex Girlfriend - Colorless Love
TTITLE7=MC Breed - Sister and Brother
TTITLE8=Forte (Featuring Damion Hall) - Holding On
TTITLE9=Portrait - Precious Moments
EXTD=
EXTT0=
EXTT1=
EXTT2=
EXTT3=
EXTT4=
EXTT5=
EXTT6=
EXTT7=
EXTT8=
EXTT9=
PLAYORDER=
